<?xml version="1.0" encoding="UTF-8"?>
<svg id="_レイヤー_2" data-name="レイヤー 2" xmlns="http://www.w3.org/2000/svg" viewBox="0 0 399.66 378.46">
  <defs>
    <style>
      .cls-1 {
        fill: none;
        stroke: gray;
        stroke-miterlimit: 10;
        stroke-width: 2px;
      }
    </style>
  </defs>
  <g id="_レイアウト" data-name="レイアウト">
    <g>
      <path class="cls-1" d="M199.94,215.07s.06,0,.09,0c15.76-26.04,42.45-45.22,74.86-50.35,5.33-.84,10.64-1.27,15.88-1.32,12.62-20.86,18.23-46.11,14.12-72.08C295.66,32.93,240.85-6.91,182.47,2.33c-58.38,9.24-98.22,64.05-88.99,122.43,2.2,13.91,7,26.77,13.81,38.17,38.42-.32,73.51,20.12,92.65,52.14Z"/>
      <path class="cls-1" d="M199.99,215.15s-.03-.05-.05-.08c-38.42.32-73.51-20.12-92.65-52.14-5.27.04-10.61.47-15.97,1.32C32.93,173.49-6.91,228.3,2.33,286.68c9.24,58.38,64.05,98.22,122.43,88.99,32.45-5.13,59.16-24.35,74.91-50.43-6.79-11.38-11.56-24.21-13.76-38.09-4.1-25.93,1.48-51.16,14.07-72Z"/>
      <path class="cls-1" d="M397.33,253.7c-8.39-53.05-54.41-90.78-106.55-90.31-15.76,26.04-42.45,45.22-74.86,50.35-5.33.84-10.64,1.27-15.88,1.32-.02.03-.03.05-.05.08,6.79,11.38,11.56,24.21,13.76,38.09,4.1,25.93-1.48,51.16-14.07,72,21.75,36.46,64.17,57.94,108.67,50.9,58.38-9.24,98.22-64.05,88.99-122.43Z"/>
    </g>
  </g>
</svg>