<?xml version="1.0" encoding="UTF-8"?>
<svg id="_レイヤー_2" data-name="レイヤー 2" xmlns="http://www.w3.org/2000/svg" viewBox="0 0 55.43 55.43">
  <defs>
    <style>
      .cls-1 {
        fill: #333;
      }
    </style>
  </defs>
  <g id="_レイアウト" data-name="レイアウト">
    <g>
      <path class="cls-1" d="M39.22,0h-23.02C7.27,0,0,7.27,0,16.21v23.02c0,8.94,7.27,16.21,16.21,16.21h23.02c8.94,0,16.21-7.27,16.21-16.21v-23.02C55.43,7.27,48.16,0,39.22,0ZM50.26,39.22c0,6.09-4.95,11.04-11.04,11.04h-23.02c-6.09,0-11.04-4.95-11.04-11.04v-23.02c0-6.09,4.95-11.04,11.04-11.04h23.02c6.09,0,11.04,4.95,11.04,11.04v23.02Z"/>
      <path class="cls-1" d="M42.53,9.48c-1.91,0-3.45,1.55-3.45,3.45s1.55,3.45,3.45,3.45,3.45-1.55,3.45-3.45-1.55-3.45-3.45-3.45Z"/>
      <path class="cls-1" d="M27.72,13.39c-7.9,0-14.33,6.43-14.33,14.33s6.43,14.33,14.33,14.33,14.33-6.43,14.33-14.33-6.43-14.33-14.33-14.33ZM27.72,36.88c-5.05,0-9.16-4.11-9.16-9.16s4.11-9.16,9.16-9.16,9.16,4.11,9.16,9.16-4.11,9.16-9.16,9.16Z"/>
    </g>
  </g>
</svg>