<!--?xml version="1.0" encoding="utf-8"?-->
<!-- Generator: Adobe Illustrator 18.0.0, SVG Export Plug-In . SVG Version: 6.00 Build 0)  -->

<svg version="1.1" id="_x32_" xmlns="http://www.w3.org/2000/svg" xmlns:xlink="http://www.w3.org/1999/xlink" x="0px" y="0px" viewBox="0 0 512 512" style="width: 256px; height: 256px; opacity: 1;" xml:space="preserve">
<style type="text/css">
	.st0{fill:#4B4B4B;}
</style>
<g>
	<path class="st0" d="M333.504,88.581c-0.352,0.336-0.746,0.629-1.092,0.969l0.01,0.008c-0.058,0.058-0.123,0.105-0.18,0.164
		l33.387,33.387l0.049,0.047l0.17,0.172c20.262-20.262,66.957-33.863,112.546,11.727L512,101.449
		C450.422,39.871,374.53,48.859,333.504,88.581z" style="fill: rgb(0, 0, 0);"></path>
	<path class="st0" d="M154.414,300.573c-34.514-34.516-61.287-72.758-79.535-111.152c-2.42-5.168-4.728-10.356-6.844-15.559
		l-0.066,0.066c-0.031-0.078-0.07-0.156-0.104-0.238L44.02,197.539c-58.693,58.691-58.693,154.734,0,213.429
		c58.693,58.692,154.736,58.692,213.43,0l17.086-17.086l6.668-6.539c-0.031-0.012-0.06-0.028-0.09-0.039l0.18-0.184
		C237.688,369.054,193.641,339.8,154.414,300.573z" style="fill: rgb(0, 0, 0);"></path>
	<path class="st0" d="M290.936,90.898c-38.564-38.566-101.711-38.566-140.275,0l-67.008,67.008
		c16.742,43.457,45.738,88.207,85.48,127.949c39.742,39.742,84.49,68.738,127.947,85.48l67.01-67.008
		c38.564-38.566,38.564-101.711,0-140.277L290.936,90.898z M294.246,197.539l-36.797,36.797c-10.119,10.121-26.68,10.121-36.799,0
		c-10.119-10.117-10.119-26.676,0-36.797l36.799-36.801c10.119-10.117,26.678-10.117,36.797,0
		C304.367,170.859,304.367,187.417,294.246,197.539z" style="fill: rgb(0, 0, 0);"></path>
</g>
</svg>
